<?xml version="1.0" encoding="utf-8"?>
<!-- Generator: Adobe Illustrator 22.1.0, SVG Export Plug-In . SVG Version: 6.00 Build 0)  -->
<svg version="1.1" id="Layer_1" xmlns="http://www.w3.org/2000/svg" xmlns:xlink="http://www.w3.org/1999/xlink" x="0px" y="0px"
	 viewBox="0 0 662 130.3" style="enable-background:new 0 0 662 130.3;" xml:space="preserve">
<style type="text/css">
	.st0{fill:#70BF54;}
	.st1{fill:#3C7338;}
	.st2{fill:#231F20;}
</style>
<title>Artboard 2</title>
<path class="st0" d="M72.8,42.2l-0.1,3.3l-0.2,3.4v0.4v0.4l-0.1,0.9l-0.1,0.8H68c-1.2,2.1-2.6,3.9-4.3,5.6
	c-9.9,10-26.1,10.1-36.1,0.2c-0.1-0.1-0.1-0.1-0.2-0.2c-1.7-1.7-3.1-3.6-4.3-5.6h-4.4l-0.1-0.8l-0.1-0.9v-0.4v-0.4l-0.2-3.4
	l-0.1-3.3H0c0,3.1,0.2,6.1,0.4,9.2c0.2,2.2,0.4,4.3,0.6,6.5c0.1,0.6,0.1,1.3,0.2,1.9l0.3,2c0.2,1.3,0.3,2.6,0.6,3.9s0.4,2.6,0.6,3.9
	l0.7,3.9c0.9,5.2,2,10.3,3.1,15.4c1.1,5.1,2.4,10.2,3.6,15.3c1.3,5.1,2.6,10.1,4,15.2c0.9,3.2,1.8,6.5,2.7,9.6h19.3
	c-0.1-0.2-0.2-0.5-0.3-1.1v-0.1c-1.9-6.5-8.8-34.8,9.9-34.8s11.8,28,9.9,34.7v0.1c-0.1,0.6-0.3,1-0.3,1.2h19.2
	c0.9-3.2,1.9-6.4,2.8-9.6c1.4-5,2.7-10.1,4-15.2c1.3-5.1,2.5-10.2,3.6-15.3c1.1-5.1,2.2-10.2,3.1-15.4l0.7-3.9
	c0.2-1.3,0.4-2.6,0.6-3.9s0.4-2.6,0.6-3.9l0.3-2c0.1-0.6,0.1-1.3,0.2-1.9c0.3-2.2,0.5-4.3,0.6-6.5c0.2-3.1,0.4-6.1,0.4-9.2
	L72.8,42.2z"/>
<path class="st1" d="M71.3,0v38.9c0,4.4-1.1,8.7-3.3,12.5c-1.2,2.1-2.6,3.9-4.3,5.6c-9.9,10-26.1,10.1-36.1,0.2
	c-0.1-0.1-0.1-0.1-0.2-0.2c-1.7-1.7-3.1-3.6-4.3-5.6c-2.2-3.8-3.3-8.1-3.3-12.5V0H0v38.9c0,4.2,0.6,8.5,1.8,12.5
	c7,24.2,32.3,38.2,56.5,31.2c15.1-4.3,26.9-16.1,31.2-31.2c1.2-4.1,1.8-8.3,1.8-12.5V0H71.3z"/>
<circle class="st0" cx="45.7" cy="37.7" r="17.7"/>
<path class="st2" d="M106.4,98V0h20.2v99.5c0,9.2,3.9,12.5,10.3,12.5s10.3-3.3,10.3-12.5V0h19.5v98c0,20.6-10.3,32.3-30.1,32.3
	S106.4,118.6,106.4,98z"/>
<path class="st2" d="M180.9,0h28.8L222.6,92h0.4L235.8,0h28.8v128.5h-19.1V31.2h-0.4l-14.7,97.3h-16.9l-14.7-97.3h-0.4v97.3h-17.6V0
	z"/>
<path class="st2" d="M295.2,0h27.3l20.9,128.5h-20.2l-3.7-25.5v0.4h-22.9l-3.6,25.1h-18.8L295.2,0z M317.2,85.9l-9-63.5h-0.4
	l-8.8,63.5L317.2,85.9z"/>
<path class="st2" d="M353.2,0h25.3l19.6,76.9h0.4V0h18v128.5h-20.7l-24.2-93.8h-0.4v93.8h-18L353.2,0z"/>
<path class="st2" d="M431.6,0h20.2v128.5h-20.2V0z"/>
<path class="st2" d="M462.8,110.5l37.4-92.1h-35.6V0h57.3v18l-37.4,92.1h37.4v18.4h-59.1V110.5z"/>
<path class="st2" d="M533.2,0h55v18.4h-34.9v34h27.7v18.4h-27.7v39.4h34.9v18.4h-55V0z"/>
<path class="st2" d="M599.8,0h29.9c20.9,0,29.9,9.7,29.9,29.6v7.9c0,13.2-4.2,21.6-13.2,25.3v0.4c10.1,3.1,13.4,12.7,13.4,27.2v22.6
	c0,6.2,0.2,10.8,2.2,15.6h-20.6c-1.1-3.3-1.8-5.3-1.8-15.8V89.2c0-11.9-3.5-15.8-12.7-15.8h-7v55h-20.2V0z M627.4,55.1
	c7.5,0,12.1-3.3,12.1-13.6v-9.9c0-9.2-3.1-13.2-10.3-13.2H620v36.7L627.4,55.1z"/>
</svg>
